<?xml version="1.0" standalone="no"?>
<!DOCTYPE svg PUBLIC "-//W3C//DTD SVG 1.1//EN" "http://www.w3.org/Graphics/SVG/1.1/DTD/svg11.dtd" >
<svg xmlns="http://www.w3.org/2000/svg">
<metadata>Generated by IcoMoon</metadata>
<defs>
<font id="icomoon" horiz-adv-x="1024">
<font-face units-per-em="1024" ascent="960" descent="-64" />
<missing-glyph horiz-adv-x="1024" />
<glyph unicode="&#x20;" horiz-adv-x="512" d="" />
<glyph unicode="&#xe900;" glyph-name="im-icon-book-open" d="M170.667 789.333l5.579 42.3c-12.183 1.607-24.467-2.117-33.707-10.219s-14.538-19.793-14.538-32.082h42.667zM170.667 214.976h-42.667c0-22.989 18.208-41.843 41.18-42.641l1.487 42.641zM531.692 67.281l-26.35-33.557c14.85-11.661 35.598-12.173 51.007-1.263l-24.657 34.82zM892.719 214.976l4.386-42.441c21.747 2.244 38.281 20.574 38.281 42.441h-42.667zM892.719 789.333h42.667c0 12.479-5.466 24.333-14.955 32.44-9.485 8.106-22.050 11.652-34.377 9.704l6.665-42.143zM556.301 676.496c-142.016 99.904-230.712 135.113-380.056 155.138l-11.158-84.601c139.005-18.005 208.552-45.664 341.996-140.246l49.218 69.709zM128 789.333v-574.357h85.333v574.357h-85.333zM169.18 172.335c68.149-2.283 115.998-10.295 166.575-31.326 51.368-20.868 101.105-53.461 169.588-107.285l52.699 67.115c-71.487 56.081-131.253 94.857-189.9 119.121-59.439 24.102-122.118 34.982-195.988 37.658l-2.974-85.282zM556.349 32.461c134.612 95.582 203.369 126.404 340.756 140.075l-8.772 84.881c-150.558-16.090-239.531-55.181-381.298-155.315l49.315-69.641zM935.386 214.976v574.357h-85.333v-574.357h85.333zM886.054 831.477c-151.305-24.157-239.607-58.242-378.756-154.83l48.788-70.011c130.378 91.232 200.782 118.268 343.293 140.554l-13.325 84.287zM574.359 67.281v574.36h-85.333v-574.36h85.333zM285.525 585.847c-23.564 0-42.667-19.103-42.667-42.667s19.103-42.667 42.667-42.667v85.333zM386.638 463.78c16.662-16.663 43.677-16.663 60.34 0s16.662 43.677 0 60.34l-60.34-60.34zM285.525 500.514c40.762 0 78.104-13.726 101.112-36.734l60.34 60.34c-42.633 42.633-103.753 61.728-161.452 61.728v-85.333zM285.525 405.333c-23.564 0-42.667-19.103-42.667-42.667s19.103-42.667 42.667-42.667v85.333zM386.638 283.266c16.662-16.663 43.677-16.663 60.34 0s16.662 43.677 0 60.34l-60.34-60.34zM285.525 320c40.762 0 78.104-13.726 101.112-36.734l60.34 60.34c-42.633 42.633-103.753 61.728-161.452 61.728v-85.333zM777.856 585.847c23.564 0 42.667-19.103 42.667-42.667s-19.103-42.667-42.667-42.667v85.333zM676.744 463.78c-16.662-16.663-43.677-16.663-60.34 0s-16.662 43.677 0 60.34l60.34-60.34zM777.856 500.514c-40.762 0-78.104-13.726-101.112-36.734l-60.34 60.34c42.633 42.633 103.753 61.728 161.452 61.728v-85.333zM777.856 405.333c23.564 0 42.667-19.103 42.667-42.667s-19.103-42.667-42.667-42.667v85.333zM676.744 283.266c-16.662-16.663-43.677-16.663-60.34 0s-16.662 43.677 0 60.34l60.34-60.34zM777.856 320c-40.762 0-78.104-13.726-101.112-36.734l-60.34 60.34c42.633 42.633 103.753 61.728 161.452 61.728v-85.333z" />
<glyph unicode="&#xe901;" glyph-name="im-icon-budget" d="M853.333 448v-42.667h85.333v42.667h-85.333zM896 746.667h42.667v42.667h-42.667v-42.667zM896-21.333v-42.667h42.667v42.667h-42.667zM938.667 277.333v42.667h-85.333v-42.667h85.333zM938.667 448v298.667h-85.333v-298.667h85.333zM896 789.333h-768v-85.333h768v85.333zM128 789.333c-23.369 0-42.667 19.297-42.667 42.667h-85.333c0-70.497 57.503-128 128-128v85.333zM0 832v-725.333h85.333v725.333h-85.333zM0 106.667c0-96.098 74.569-170.667 170.667-170.667v85.333c-48.969 0-85.333 36.365-85.333 85.333h-85.333zM170.667-64h725.333v85.333h-725.333v-85.333zM938.667-21.333v298.667h-85.333v-298.667h85.333zM640 746.667v-42.667h85.333v42.667h-85.333zM682.667 917.333h42.667v42.667h-42.667v-42.667zM128 704h42.667v85.333h-42.667v-85.333zM725.333 746.667v170.667h-85.333v-170.667h85.333zM682.667 960h-554.667v-85.333h554.667v85.333zM128 960c-70.497 0-128-57.503-128-128h85.333c0 23.369 19.297 42.667 42.667 42.667v85.333zM0 832c0-70.497 57.503-128 128-128v85.333c-23.369 0-42.667 19.297-42.667 42.667h-85.333zM981.333 277.333v-42.667h42.667v42.667h-42.667zM981.333 448h42.667v42.667h-42.667v-42.667zM981.333 320h-213.333v-85.333h213.333v85.333zM768 320c-23.369 0-42.667 19.297-42.667 42.667h-85.333c0-70.497 57.503-128 128-128v85.333zM725.333 362.667c0 23.369 19.297 42.667 42.667 42.667v85.333c-70.497 0-128-57.503-128-128h85.333zM768 405.333h213.333v85.333h-213.333v-85.333zM938.667 448v-170.667h85.333v170.667h-85.333z" />
<glyph unicode="&#xe902;" glyph-name="im-icon-calendar" d="M256 766.357h551.386c47.125 0 85.333-38.205 85.333-85.333v-551.386c0-47.125-38.208-85.333-85.333-85.333h-551.386c-47.128 0-85.333 38.208-85.333 85.333v551.386c0 47.128 38.205 85.333 85.333 85.333zM827.076 569.434h-590.769v-459.486h590.769v459.486zM301.948 503.795h131.282v-131.282h-131.282v131.282zM466.052 503.795h131.282v-131.282h-131.282v131.282zM269.129 832h98.461v-65.641h-98.461v65.641zM695.795 832h98.461v-65.641h-98.461v65.641zM630.153 503.795h131.282v-131.282h-131.282v131.282zM301.948 339.691h131.282v-131.282h-131.282v131.282zM466.052 339.691h131.282v-131.282h-131.282v131.282z" />
<glyph unicode="&#xe903;" glyph-name="im-icon-chat" d="M213.333 832c-47.128 0-85.333-38.205-85.333-85.333v-387.281c0-47.13 38.205-85.333 85.333-85.333h84.239l-38.042-140.463c-10.679-39.433 34.819-69.879 67.197-44.975l226.97 174.592c4.186 3.221 7.536 6.895 10.104 10.846h266.556c47.13 0 85.333 38.204 85.333 85.333v387.281c0 47.128-38.204 85.333-85.333 85.333h-617.024zM751.59 520.205v-82.051h-459.488v82.051h459.488zM292.102 667.898h459.488v-82.051h-459.488v82.051z" />
<glyph unicode="&#xe904;" glyph-name="im-icon-company" d="M426.667 234.667h42.667v85.333h-42.667v-85.333zM42.667 277.333h-42.667v-42.667h42.667v42.667zM42.667 746.667v42.667h-42.667v-42.667h42.667zM981.333 746.667h42.667v42.667h-42.667v-42.667zM981.333 277.333v-42.667h42.667v42.667h-42.667zM597.333 320h-42.667v-85.333h42.667v85.333zM426.667 320h-384v-85.333h384v85.333zM85.333 277.333v469.333h-85.333v-469.333h85.333zM42.667 704h938.667v85.333h-938.667v-85.333zM938.667 746.667v-469.333h85.333v469.333h-85.333zM981.333 320h-384v-85.333h384v85.333zM981.333 277.333v42.667h-85.333v-42.667h85.333zM938.667 21.333v-42.667h42.667v42.667h-42.667zM85.333 21.333h-42.667v-42.667h42.667v42.667zM128 277.333v42.667h-85.333v-42.667h85.333zM896 277.333v-256h85.333v256h-85.333zM938.667 64h-853.333v-85.333h853.333v85.333zM128 21.333v256h-85.333v-256h85.333zM298.667 746.667v-42.667h85.333v42.667h-85.333zM341.333 874.667v42.667h-42.667v-42.667h42.667zM682.667 874.667h42.667v42.667h-42.667v-42.667zM640 746.667v-42.667h85.333v42.667h-85.333zM384 746.667v128h-85.333v-128h85.333zM341.333 832h341.333v85.333h-341.333v-85.333zM640 874.667v-128h85.333v128h-85.333zM426.667 362.667v42.667h-42.667v-42.667h42.667zM597.333 362.667h42.667v42.667h-42.667v-42.667zM597.333 192v-42.667h42.667v42.667h-42.667zM426.667 192h-42.667v-42.667h42.667v42.667zM426.667 320h170.667v85.333h-170.667v-85.333zM554.667 362.667v-170.667h85.333v170.667h-85.333zM597.333 234.667h-170.667v-85.333h170.667v85.333zM469.333 192v170.667h-85.333v-170.667h85.333z" />
<glyph unicode="&#xe905;" glyph-name="im-icon-dashboard" d="M213.333 832h262.564v-229.744h-262.564v229.744zM508.719 832h262.564v-229.744h-262.564v229.744zM213.333 569.438h262.564v-229.744h-262.564v229.744zM508.719 569.438h262.564v-229.744h-262.564v229.744zM213.333 306.871h262.564v-229.744h-262.564v229.744zM508.719 306.871h262.564v-229.744h-262.564v229.744z" />
<glyph unicode="&#xe906;" d="M42.667 576h938.667v-597.333h-938.667v597.333z" />
<glyph unicode="&#xe907;" d="M42.667 576v42.667h-42.667v-42.667h42.667zM981.333 576h42.667v42.667h-42.667v-42.667zM981.333-21.333v-42.667h42.667v42.667h-42.667zM42.667-21.333h-42.667v-42.667h42.667v42.667zM42.667 533.333h938.667v85.333h-938.667v-85.333zM938.667 576v-597.333h85.333v597.333h-85.333zM981.333 21.333h-938.667v-85.333h938.667v85.333zM85.333-21.333v597.333h-85.333v-597.333h85.333z" />
<glyph unicode="&#xe908;" d="M170.667 704c136.31-19.101 211.116-50.678 341.333-148.364 127.411 94.337 202.436 125.036 341.333 148.364v-576.969c-136.119-14.946-210.679-50.065-341.333-148.365-132.335 110.404-207.060 143.39-341.333 148.365v576.969z" />
<glyph unicode="&#xe909;" d="M170.667 704l5.921 42.254c-12.229 1.714-24.601-1.955-33.919-10.058s-14.668-19.847-14.668-32.195h42.667zM170.667 127.031h-42.667c0-22.95 18.153-41.788 41.087-42.637l1.58 42.637zM512-21.333l-27.333-32.764c15.211-12.689 37.155-13.239 52.985-1.331l-25.652 34.095zM853.333 127.031l4.655-42.415c21.632 2.377 38.012 20.651 38.012 42.415h-42.667zM853.333 704h42.667c0 12.551-5.525 24.466-15.108 32.573s-22.246 11.583-34.624 9.505l7.066-42.077zM537.604 589.767c-134.565 100.55-219.274 136.26-361.016 156.487l-11.842-84.508c130.879-17.976 195.78-45.419 321.651-140.24l51.208 68.261zM128 704v-576.969h85.333v576.969h-85.333zM169.087 84.395c64.102-2.27 108.546-10.163 155.925-31.125 48.288-20.826 94.983-53.355 159.655-107.366l54.665 65.527c-67.662 56.393-124.497 95.556-180.224 120.064-56.636 24.375-116.691 35.465-186.862 38.174l-3.16-85.274zM537.652-55.428c127.031 95.855 191.137 126.447 320.336 140.045l-9.31 84.826c-143.040-16.29-228.058-55.936-362.33-156.681l51.304-68.19zM896 127.031v576.969h-85.333v-576.969h85.333zM846.268 746.077c-143.514-24.369-227.789-58.927-359.657-156.151l50.778-68.581c122.959 91.45 188.734 118.292 323.010 140.577l-14.131 84.155zM554.667-21.333v576.97h-85.333v-576.97h85.333z" />
<glyph unicode="&#xe90a;" d="M302.729 287.407c-23.564 0-42.667-19.103-42.667-42.667s19.103-42.667 42.667-42.667v85.333zM347.878 173.556c12.542-19.949 38.881-25.954 58.83-13.412s25.954 38.881 13.412 58.831l-72.242-45.419zM302.729 202.074c14.554 0 31.949-7.523 45.149-28.518l72.242 45.419c-27.436 43.639-70.992 68.433-117.391 68.433v-85.333z" />
<glyph unicode="&#xe90b;" d="M298.667 423.138c-23.564 0-42.667-19.103-42.667-42.667s19.103-42.667 42.667-42.667v85.333zM343.816 309.287c12.542-19.949 38.881-25.954 58.83-13.412s25.954 38.881 13.412 58.831l-72.242-45.419zM298.667 337.805c14.554 0 31.949-7.523 45.149-28.518l72.242 45.419c-27.436 43.639-70.992 68.433-117.391 68.433v-85.333z" />
<glyph unicode="&#xe90c;" d="M298.667 565.333c-23.564 0-42.667-19.103-42.667-42.667s19.103-42.667 42.667-42.667v85.333zM343.816 451.482c12.542-19.949 38.881-25.954 58.83-13.412s25.954 38.881 13.412 58.831l-72.242-45.419zM298.667 480c14.554 0 31.949-7.523 45.149-28.518l72.242 45.419c-27.436 43.639-70.992 68.433-117.391 68.433v-85.333z" />
<glyph unicode="&#xe90d;" d="M721.271 287.407c23.564 0 42.667-19.103 42.667-42.667s-19.103-42.667-42.667-42.667v85.333zM676.122 173.556c-12.542-19.949-38.881-25.954-58.83-13.412s-25.954 38.881-13.412 58.831l72.242-45.419zM721.271 202.074c-14.554 0-31.949-7.523-45.149-28.518l-72.242 45.419c27.436 43.639 70.992 68.433 117.391 68.433v-85.333z" />
<glyph unicode="&#xe90e;" d="M725.333 423.138c23.564 0 42.667-19.103 42.667-42.667s-19.103-42.667-42.667-42.667v85.333zM680.184 309.287c-12.542-19.949-38.881-25.954-58.83-13.412s-25.954 38.881-13.412 58.831l72.242-45.419zM725.333 337.805c-14.554 0-31.949-7.523-45.149-28.518l-72.242 45.419c27.436 43.639 70.992 68.433 117.391 68.433v-85.333z" />
<glyph unicode="&#xe90f;" d="M725.333 551.138c23.564 0 42.667-19.103 42.667-42.667s-19.103-42.667-42.667-42.667v85.333zM680.184 437.287c-12.542-19.949-38.881-25.954-58.83-13.412s-25.954 38.881-13.412 58.831l72.242-45.419zM725.333 465.805c-14.554 0-31.949-7.523-45.149-28.518l-72.242 45.419c27.436 43.639 70.992 68.433 117.391 68.433v-85.333z" />
<glyph unicode="&#xe910;" d="M725.333 576c0-35.346-28.654-64-64-64s-64 28.654-64 64c0 35.346 28.654 64 64 64s64-28.654 64-64z" />
<glyph unicode="&#xe911;" d="M725.333 597.333v256h-42.667v-256h42.667z" />
<glyph unicode="&#xe912;" d="M704 853.333c-11.782 0-21.333-9.551-21.333-21.333s9.551-21.333 21.333-21.333v42.667zM798.874 834.252c10.538 5.269 14.81 18.083 9.54 28.622s-18.083 14.81-28.622 9.541l19.081-38.162zM704 810.667c21.333 0 34.607 0.16 47.841 3.304 12.894 3.355 25.7 9.615 47.033 20.282l-19.081 38.162c-21.333-10.667-29.861-15.073-38.3-17.051-8.099-2.19-16.159-2.030-37.493-2.030v-42.667z" />
<glyph unicode="&#xe913;" d="M896 661.333c0-35.346-28.654-64-64-64s-64 28.654-64 64c0 35.346 28.654 64 64 64s64-28.654 64-64z" />
<glyph unicode="&#xe914;" d="M896 682.667v256h-42.667v-256h42.667z" />
<glyph unicode="&#xe915;" d="M874.667 938.667c-11.782 0-21.333-9.551-21.333-21.333s9.551-21.333 21.333-21.333v42.667zM975.085 923.582c8.332 8.331 8.332 21.839 0 30.17s-21.839 8.331-30.17 0l30.17-30.17zM874.667 896c40.937 0 71.858-0.978 100.418 27.582l-30.17 30.17c-14.107-14.107-25.852-15.085-70.249-15.085v-42.667z" />
<glyph unicode="&#xe916;" glyph-name="im-icon-email" d="M840.836 631.163l30.17 30.17-60.339 60.34-30.17-30.17 60.339-60.34zM512 362.667l-30.17-30.17 30.17-30.17 30.17 30.17-30.17 30.17zM243.503 691.503l-30.17 30.17-60.34-60.34 30.17-30.17 60.34 60.34zM780.497 691.503l-298.667-298.667 60.34-60.34 298.666 298.667-60.339 60.34zM542.17 392.837l-298.667 298.667-60.34-60.34 298.667-298.667 60.34 60.34zM42.667 832v42.667h-42.667v-42.667h42.667zM981.333 832h42.667v42.667h-42.667v-42.667zM981.333 64v-42.667h42.667v42.667h-42.667zM42.667 64h-42.667v-42.667h42.667v42.667zM42.667 789.333h938.667v85.333h-938.667v-85.333zM938.667 832v-768h85.333v768h-85.333zM981.333 106.667h-938.667v-85.333h938.667v85.333zM85.333 64v768h-85.333v-768h85.333zM328.837 289.83l30.17 30.17-60.34 60.34-30.17-30.17 60.34-60.34zM183.163 264.837l-30.17-30.17 60.34-60.34 30.17 30.17-60.34 60.34zM268.497 350.17l-85.333-85.333 60.34-60.34 85.333 85.333-60.34 60.34zM755.503 350.17l-30.17 30.17-60.34-60.34 30.17-30.17 60.34 60.34zM780.497 204.497l30.17-30.17 60.34 60.34-30.17 30.17-60.34-60.34zM695.163 289.83l85.333-85.333 60.34 60.34-85.333 85.333-60.34-60.34z" />
<glyph unicode="&#xe917;" glyph-name="im-icon-exit-door" d="M597.333 768h42.667v85.333h-42.667v-85.333zM341.333 810.667v42.667h-42.667v-42.667h42.667zM298.667 704v-42.667h85.333v42.667h-85.333zM597.333 853.333h-256v-85.333h256v85.333zM298.667 810.667v-106.667h85.333v106.667h-85.333zM597.333 42.667h42.667v85.333h-42.667v-85.333zM341.333 85.333h-42.667v-42.667h42.667v42.667zM384 192v42.667h-85.333v-42.667h85.333zM597.333 128h-256v-85.333h256v85.333zM384 85.333v106.667h-85.333v-106.667h85.333zM597.333 896l9.695 41.551-52.362 12.218v-53.768h42.667zM981.333 806.4h42.667v33.857l-32.972 7.693-9.695-41.551zM981.333 89.6l9.695-41.549 32.972 7.693v33.856h-42.667zM597.333 0h-42.667v-53.769l52.362 12.22-9.695 41.549zM587.638 854.449l384-89.6 19.39 83.101-384 89.6-19.39-83.101zM938.667 806.4v-716.8h85.333v716.8h-85.333zM971.638 131.149l-384-89.6 19.39-83.098 384 89.6-19.39 83.098zM640 0v896h-85.333v-896h85.333zM768 426.667c0-35.346-19.103-64-42.667-64s-42.667 28.654-42.667 64c0 35.346 19.103 64 42.667 64s42.667-28.654 42.667-64zM42.667 512v42.667h-42.667v-42.667h42.667zM234.667 512v-42.667h42.667v42.667h-42.667zM234.667 640l27.018 33.022-69.685 57.015v-90.037h42.667zM469.333 448l27.017-33.022 40.363 33.022-40.363 33.022-27.017-33.022zM234.667 256h-42.667v-90.035l69.685 57.013-27.018 33.022zM234.667 384h42.667v42.667h-42.667v-42.667zM42.667 384h-42.667v-42.667h42.667v42.667zM42.667 469.333h192v85.333h-192v-85.333zM277.333 512v128h-85.333v-128h85.333zM207.648 606.978l234.667-192 54.035 66.045-234.665 192-54.036-66.044zM442.315 481.022l-234.667-192 54.036-66.045 234.665 192-54.035 66.045zM277.333 256v128h-85.333v-128h85.333zM234.667 426.667h-192v-85.333h192v85.333zM85.333 384v128h-85.333v-128h85.333z" />
<glyph unicode="&#xe918;" d="M128 704h768v-725.333h-768v725.333z" />
<glyph unicode="&#xe919;" d="M128 704v42.667h-42.667v-42.667h42.667zM896 704h42.667v42.667h-42.667v-42.667zM896-21.333v-42.667h42.667v42.667h-42.667zM128-21.333h-42.667v-42.667h42.667v42.667zM128 661.333h768v85.333h-768v-85.333zM853.333 704v-725.333h85.333v725.333h-85.333zM896 21.333h-768v-85.333h768v85.333zM170.667-21.333v725.333h-85.333v-725.333h85.333z" />
<glyph unicode="&#xe91a;" d="M640 21.333v384h-85.333v-384h85.333z" />
<glyph unicode="&#xe91b;" d="M640 405.333c-0.016 30.816 0.88 49.798 4.482 64.014 2.652 11.018 5.368 12.163 5.852 12.486 2.749 1.833 10.444 5.146 31.696 6.994 21.154 1.88 48.637 1.84 85.97 1.84v85.333c-37.333 0-68.517-0.040-93.363-2.16-24.748-2.152-50.387-6.838-71.638-21.005-23.516-15.677-35.467-38.533-41.481-63.514-5.065-21.784-6.835-50.802-6.852-83.986h85.333z" />
<glyph unicode="&#xe91c;" d="M469.333 362.667h298.667l-21.333-85.333h-277.333v85.333z" />
<glyph unicode="&#xe91d;" glyph-name="im-icon-home" d="M537.62 776.992c-16.626 16.455-43.402 16.455-60.028 0l-294.186-291.169c-27.092-26.814-8.104-72.992 30.014-72.992h32.75c-0.747-3.16-1.141-6.456-1.141-9.844v-275.712c0-23.565 19.102-42.667 42.667-42.667h133.526c-0.746 3.162-1.141 6.455-1.141 9.843v210.069c0 23.565 19.103 42.667 42.667 42.667h89.719c23.564 0 42.667-19.102 42.667-42.667v-210.069c0-3.388-0.395-6.682-1.141-9.843h133.527c23.565 0 42.667 19.102 42.667 42.667v275.712c0 3.388-0.397 6.684-1.143 9.844h32.751c38.118 0 57.105 46.177 30.016 72.992l-294.188 291.169z" />
<glyph unicode="&#xe91e;" d="M384 234.667c0-47.128-38.205-85.333-85.333-85.333s-85.333 38.205-85.333 85.333c0 47.128 38.205 85.333 85.333 85.333s85.333-38.205 85.333-85.333z" />
<glyph unicode="&#xe91f;" d="M341.333 234.667c0-23.564-19.103-42.667-42.667-42.667v-85.333c70.692 0 128 57.308 128 128h-85.333zM298.667 192c-23.564 0-42.667 19.103-42.667 42.667h-85.333c0-70.692 57.308-128 128-128v85.333zM256 234.667c0 23.564 19.103 42.667 42.667 42.667v85.333c-70.692 0-128-57.308-128-128h85.333zM298.667 277.333c23.564 0 42.667-19.103 42.667-42.667h85.333c0 70.692-57.308 128-128 128v-85.333z" />
<glyph unicode="&#xe920;" d="M414.222 526.222l-11.226-41.162c14.772-4.032 30.569 0.166 41.396 10.992l-30.17 30.17zM805.333 917.333l5.291 42.337c-13.065 1.633-26.15-2.857-35.46-12.167l30.17-30.17zM961.779 897.778l42.334 5.292c-2.419 19.368-17.677 34.624-37.043 37.045l-5.291-42.337zM981.333 741.333l30.17-30.17c9.31 9.31 13.803 22.397 12.169 35.462l-42.338-5.292zM922.667 682.667v-42.667c11.315 0 22.17 4.495 30.17 12.497l-30.17 30.17zM805.333 682.667v42.667c-23.565 0-42.667-19.103-42.667-42.667h42.667zM805.333 565.333v-42.667c23.565 0 42.667 19.103 42.667 42.667h-42.667zM688 565.333v42.667c-23.565 0-42.667-19.103-42.667-42.667h42.667zM688 467.554l30.17-30.17c8 8.004 12.497 18.854 12.497 30.17h-42.667zM590.221 369.779l-30.17 30.17c-12.224-12.228-15.863-30.622-9.212-46.579l39.381 16.41zM336 21.333c-138.439 0-250.667 112.226-250.667 250.667h-85.333c0-185.566 150.432-336 336-336v85.333zM444.392 496.052c9.778 9.777 107.557 107.555 202.887 202.889 47.667 47.667 94.724 94.723 129.865 129.861 17.57 17.57 32.158 32.16 42.355 42.358 5.099 5.099 9.101 9.1 11.827 11.826 1.361 1.363 2.406 2.407 3.11 3.111 0.354 0.352 0.619 0.618 0.798 0.797 0.090 0.089 0.158 0.157 0.201 0.202 0.021 0.022 0.038 0.039 0.051 0.051 0.004 0.006 0.009 0.010 0.013 0.013s0.004 0.004-30.165 30.174-30.17 30.168-30.174 30.166-0.009-0.007-0.013-0.013c-0.013-0.011-0.030-0.028-0.051-0.051-0.043-0.045-0.111-0.112-0.201-0.202-0.179-0.179-0.448-0.445-0.798-0.797-0.704-0.704-1.749-1.748-3.11-3.111-2.726-2.726-6.729-6.727-11.827-11.826-10.197-10.198-24.789-24.788-42.355-42.358-35.14-35.139-82.197-82.194-129.865-129.861-95.33-95.334-193.11-193.111-202.887-202.889l60.34-60.34zM800.043 874.996l156.442-19.555 10.586 84.674-156.446 19.556-10.581-84.674zM919.441 892.486l19.554-156.444 84.676 10.584-19.558 156.445-84.672-10.584zM951.164 771.503l-58.667-58.667 60.339-60.34 58.667 58.667-60.339 60.34zM922.667 725.333h-117.333v-85.333h117.333v85.333zM762.667 682.667v-117.333h85.333v117.333h-85.333zM805.333 608h-117.333v-85.333h117.333v85.333zM645.333 565.333v-97.779h85.333v97.779h-85.333zM688 467.554c-30.17 30.171-30.17 30.171-30.17 30.17s-0.004-0.002-0.004-0.003c0-0.003-0.004-0.006-0.009-0.011-0.013-0.010-0.026-0.024-0.043-0.043-0.038-0.038-0.094-0.094-0.171-0.168-0.149-0.149-0.367-0.369-0.657-0.658-0.576-0.578-1.429-1.428-2.517-2.516-2.176-2.177-5.308-5.311-9.126-9.129-7.642-7.637-18.031-18.027-29.030-29.026-21.999-21.999-46.443-46.447-56.222-56.222l60.339-60.339c9.779 9.775 34.223 34.219 56.222 56.222 11.004 10.999 21.393 21.389 29.030 29.026 3.819 3.819 6.95 6.95 9.126 9.131 1.088 1.088 1.941 1.937 2.517 2.513 0.29 0.29 0.512 0.512 0.657 0.661 0.077 0.073 0.132 0.128 0.171 0.166 0.017 0.017 0.034 0.034 0.043 0.043 0.004 0.004 0.009 0.009 0.009 0.009 0.004 0.004 0.004 0.004 0.004 0.004s0 0-30.17 30.17zM425.449 567.386c-242.45 66.123-425.449-105.455-425.449-295.386h85.333c0 134.076 129.89 264.27 317.663 213.060l22.452 82.325zM336-64c93.491 0 193.805 44.625 257.664 123.341 65.655 80.934 90.714 195.396 35.942 326.848l-78.767-32.819c43.004-103.219 21.952-184.311-23.445-240.265-47.194-58.176-122.882-91.772-191.394-91.772v-85.333z" />
<glyph unicode="&#xe921;" d="M671.61 791.557l-240.561-87.557 262.671-721.684 240.561 87.557-262.671 721.684z" />
<glyph unicode="&#xe922;" d="M431.049 704l-14.593 40.094-40.094-14.593 14.593-40.094 40.094 14.593zM671.61 791.557l40.094 14.593-14.593 40.094-40.094-14.593 14.593-40.094zM934.281 69.873l14.593-40.094 40.094 14.593-14.593 40.094-40.094-14.593zM693.72-17.684l-40.094-14.593 14.593-40.094 40.094 14.593-14.593 40.094zM445.641 663.906l240.561 87.557-29.186 80.187-240.561-87.557 29.186-80.187zM631.516 776.964l262.671-721.684 80.187 29.186-262.671 721.684-80.187-29.186zM919.688 109.966l-240.561-87.557 29.186-80.187 240.561 87.557-29.186 80.187zM733.813-3.091l-262.671 721.684-80.187-29.186 262.671-721.684 80.187 29.186z" />
<glyph unicode="&#xe923;" d="M504.013 546.197l240.561 87.557-29.186 80.187-240.561-87.557 29.186-80.187z" />
<glyph unicode="&#xe924;" d="M547.793 425.92l240.561 87.557-29.186 80.187-240.561-87.557 29.186-80.187z" />
<glyph unicode="&#xe925;" d="M682.667 61.781l240.561 87.557-29.186 80.187-240.561-87.557 29.186-80.187z" />
<glyph unicode="&#xe926;" d="M341.333 746.667h-256v-768h256v768z" />
<glyph unicode="&#xe927;" d="M85.333 746.667v42.667h-42.667v-42.667h42.667zM341.333 746.667h42.667v42.667h-42.667v-42.667zM341.333-21.333v-42.667h42.667v42.667h-42.667zM85.333-21.333h-42.667v-42.667h42.667v42.667zM85.333 704h256v85.333h-256v-85.333zM298.667 746.667v-768h85.333v768h-85.333zM341.333 21.333h-256v-85.333h256v85.333zM128-21.333v768h-85.333v-768h85.333z" />
<glyph unicode="&#xe928;" d="M85.333 576h256v85.333h-256v-85.333z" />
<glyph unicode="&#xe929;" d="M85.333 448h256v85.333h-256v-85.333z" />
<glyph unicode="&#xe92a;" d="M85.333 64h256v85.333h-256v-85.333z" />
<glyph unicode="&#xe92b;" glyph-name="im-icon-message" d="M341.333 149.333v-42.667h17.673l12.497 12.497-30.17 30.17zM128 149.333h-42.667v-42.667h42.667v42.667zM128 362.667l-30.17 30.17-12.497-12.497v-17.673h42.667zM640 874.667l30.17 30.17-30.17 30.17-30.17-30.17 30.17-30.17zM853.333 661.333l30.17-30.17 30.17 30.17-30.17 30.17-30.17-30.17zM341.333 192h-213.333v-85.333h213.333v85.333zM170.667 149.333v213.333h-85.333v-213.333h85.333zM158.17 332.497l512 512-60.339 60.34-512-512 60.34-60.339zM609.83 844.497l213.333-213.333 60.339 60.34-213.333 213.333-60.339-60.34zM823.164 691.503l-512-512 60.34-60.339 512 512-60.339 60.34zM128 21.333h-42.667v-85.333h42.667v85.333zM810.667-64h42.667v85.333h-42.667v-85.333zM128-64h682.667v85.333h-682.667v-85.333zM542.17 776.837l-30.17 30.17-60.34-60.34 30.17-30.17 60.34 60.34zM695.163 503.163l30.17-30.17 60.34 60.34-30.17 30.17-60.34-60.34zM481.83 716.497l213.333-213.333 60.34 60.34-213.333 213.333-60.34-60.34z" />
<glyph unicode="&#xe92c;" glyph-name="im-icon-paragraph" d="M85.333 746.667h853.333v85.333h-853.333v-85.333zM85.333 576h853.333v85.333h-853.333v-85.333zM85.333 405.333h853.333v85.333h-853.333v-85.333zM85.333 234.667h853.333v85.333h-853.333v-85.333zM85.333 64h597.333v85.333h-597.333v-85.333z" />
<glyph unicode="&#xe92d;" glyph-name="im-icon-required" d="M85.333-64c47.128 0 85.333 38.205 85.333 85.333s-38.205 85.333-85.333 85.333c-47.128 0-85.333-38.205-85.333-85.333s38.205-85.333 85.333-85.333z" />
<glyph unicode="&#xe92e;" glyph-name="im-icon-user" d="M128 174.933l-21.857 36.643-0.919-0.548-0.891-0.594 23.667-35.501zM85.333-21.333h-42.667v-42.667h42.667v42.667zM938.667-21.333v-42.667h42.667v42.667h-42.667zM896 174.933l-21.858-36.643 1.361-0.811 1.417-0.708 19.081 38.162zM349.343 356.643l-243.2-145.067 43.714-73.286 243.2 145.067-43.715 73.286zM104.333 210.434c-34.344-22.896-61.666-60.515-61.666-108.034h85.333c0 12.214 6.811 25.795 23.667 37.033l-47.334 71.002zM42.667 102.4v-123.733h85.333v123.733h-85.333zM85.333-64h853.333v85.333h-853.333v-85.333zM981.333-21.333v123.733h-85.333v-123.733h85.333zM981.333 102.4c0 44.287-24.704 89.921-66.253 110.696l-38.161-76.325c9.651-4.826 19.081-18.925 19.081-34.371h85.333zM917.858 211.576l-243.2 145.067-43.716-73.286 243.2-145.067 43.716 73.286zM512 320c-117.236 0-213.333 96.098-213.333 213.333h-85.333c0-164.365 134.303-298.667 298.667-298.667v85.333zM298.667 533.333v128h-85.333v-128h85.333zM298.667 661.333c0 117.236 96.097 213.333 213.333 213.333v85.333c-164.364 0-298.667-134.303-298.667-298.667h85.333zM512 874.667c117.236 0 213.333-96.097 213.333-213.333h85.333c0 164.364-134.303 298.667-298.667 298.667v-85.333zM725.333 661.333v-128h85.333v128h-85.333zM725.333 533.333c0-117.235-96.097-213.333-213.333-213.333v-85.333c164.364 0 298.667 134.302 298.667 298.667h-85.333z" />
<glyph unicode="&#xe92f;" d="M42.667 746.667h938.667v-768h-938.667v768z" />
<glyph unicode="&#xe930;" d="M42.667 746.667v42.667h-42.667v-42.667h42.667zM981.333 746.667h42.667v42.667h-42.667v-42.667zM981.333-21.333v-42.667h42.667v42.667h-42.667zM42.667-21.333h-42.667v-42.667h42.667v42.667zM42.667 704h938.667v85.333h-938.667v-85.333zM938.667 746.667v-768h85.333v768h-85.333zM981.333 21.333h-938.667v-85.333h938.667v85.333zM85.333-21.333v768h-85.333v-768h85.333z" />
<glyph unicode="&#xe931;" d="M640 533.333h213.333v85.333h-213.333v-85.333z" />
<glyph unicode="&#xe932;" d="M640 405.333h170.667v85.333h-170.667v-85.333z" />
<glyph unicode="&#xe933;" d="M170.667 234.667h213.333v85.333h-213.333v-85.333z" />
<glyph unicode="&#xe934;" d="M170.667 106.667h170.667v85.333h-170.667v-85.333z" />
<glyph unicode="&#xe935;" d="M469.333 661.333v-597.333h85.333v597.333h-85.333z" />
<glyph unicode="&#xe936;" d="M661.333 298.667h170.667v-170.667h-170.667v170.667z" />
<glyph unicode="&#xe937;" d="M661.333 298.667v21.333h-21.333v-21.333h21.333zM832 298.667h21.333v21.333h-21.333v-21.333zM832 128v-21.333h21.333v21.333h-21.333zM661.333 128h-21.333v-21.333h21.333v21.333zM661.333 277.333h170.667v42.667h-170.667v-42.667zM810.667 298.667v-170.667h42.667v170.667h-42.667zM832 149.333h-170.667v-42.667h170.667v42.667zM682.667 128v170.667h-42.667v-170.667h42.667z" />
<glyph unicode="&#xe938;" d="M192 618.667h170.667v-170.667h-170.667v170.667z" />
<glyph unicode="&#xe939;" d="M192 618.667v21.333h-21.333v-21.333h21.333zM362.667 618.667h21.333v21.333h-21.333v-21.333zM362.667 448v-21.333h21.333v21.333h-21.333zM192 448h-21.333v-21.333h21.333v21.333zM192 597.333h170.667v42.667h-170.667v-42.667zM341.333 618.667v-170.667h42.667v170.667h-42.667zM362.667 469.333h-170.667v-42.667h170.667v42.667zM213.333 448v170.667h-42.667v-170.667h42.667z" />
<glyph unicode="&#xe93a;" glyph-name="im-icon-x" d="M810.667 448c0-164.949-133.717-298.667-298.667-298.667v-85.333c212.079 0 384 171.921 384 384h-85.333zM512 149.333c-164.949 0-298.667 133.717-298.667 298.667h-85.333c0-212.079 171.923-384 384-384v85.333zM213.333 448c0 164.949 133.718 298.667 298.667 298.667v85.333c-212.077 0-384-171.923-384-384h85.333zM512 746.667c164.949 0 298.667-133.718 298.667-298.667h85.333c0 212.077-171.921 384-384 384v-85.333zM361.152 538.51l241.359-241.359 60.34 60.34-241.359 241.359-60.34-60.34zM421.491 297.152l241.359 241.359-60.34 60.34-241.359-241.359 60.34-60.34z" />
</font>
</defs>
</svg>
